<?xml version="1.0" encoding="UTF-8"?>
<svg id="logo-roadsurfer" data-name="logo-roadsurfer"
  xmlns="http://www.w3.org/2000/svg" viewBox="0 0 910.31 631.32">
  <defs>
    <style>
      .van-color {
        fill: #6ec3bd;
      }
      .white {
        fill: #fff;
      }
      .border {
        fill: #070606;
      }
      .wheel-color {
        fill: #4e4f4e;
      }
    </style>
  </defs>
  <g id="WheelsGroup">
    <g id="WheelsBackground">
      <ellipse class="white" cx="168.81" cy="545.97" rx="39.5" ry="42"/>
      <ellipse class="white" cx="728.81" cy="545.97" rx="39.5" ry="42"/>
    </g>
    <g id="Wheels">
      <path class="wheel-color" d="M728,627.32c-9.72,0-19.16-2-28.03-5.94-9.35-4.13-17.71-10.17-24.84-17.97-7.11-7.77-12.63-16.87-16.4-27.05-3.78-10.24-5.62-20.95-5.48-31.84-.08-16.39,4.24-32.36,12.52-46.11,8.31-13.81,20.06-24.5,33.99-30.92,9.39-4.33,19.32-6.52,29.52-6.52,4.9,0,9.83.52,14.64,1.56,14.86,3.19,28.38,11.07,39.1,22.77,10.66,11.65,17.85,26.34,20.81,42.51,2.95,16.14,1.49,32.71-4.22,47.92-5.73,15.27-15.38,28.21-27.9,37.42-12.58,9.25-27.25,14.15-42.42,14.15-.37,0-.83.01-1.28.01ZM728.01,507.88c-4.19,0-8.27.84-12.12,2.5-4.21,1.8-8,4.48-11.27,7.95-3.34,3.58-5.95,7.72-7.74,12.3-1.85,4.74-2.83,9.72-2.9,14.81,0,10.34,3.58,20.16,10.08,27.57,6.4,7.3,14.94,11.47,24.05,11.75.41.02.79.02,1.17.02,4.2,0,8.28-.86,12.13-2.55,4.29-1.88,8.12-4.68,11.38-8.32,3.3-3.67,5.84-8,7.54-12.85,1.29-3.69,2.05-7.51,2.27-11.39h-.2l.11-4.11c.13-5.02-.65-9.96-2.33-14.69-1.62-4.59-4.08-8.76-7.31-12.39-3.14-3.5-6.83-6.21-10.95-8.04-3.81-1.7-7.84-2.56-12-2.56-.26,0-.52,0-.79.01h-.11s-.11,0-.11,0c-.3,0-.6-.01-.9-.01ZM168.68,627.32c-.4,0-.79,0-1.19-.01h-.36c-9.77,0-19.22-2.06-28.09-6.13-9.06-4.13-17.17-10.12-24.07-17.81-6.88-7.66-12.23-16.61-15.91-26.61-3.66-10.02-5.48-20.5-5.39-31.16-.42-10.94,1.14-21.75,4.64-32.12,3.52-10.37,8.8-19.69,15.72-27.7,6.94-8.05,15.15-14.35,24.39-18.74,9.28-4.4,19.11-6.63,29.21-6.63s19.93,2.23,29.21,6.63c9.25,4.39,17.46,10.69,24.39,18.74,6.91,8.01,12.19,17.33,15.71,27.7,3.5,10.31,5.06,21.11,4.65,32.11.16,10.7-1.6,21.23-5.25,31.29-3.66,10.06-9.02,19.05-15.94,26.73-6.95,7.72-15.1,13.71-24.22,17.8-8.7,3.93-17.96,5.92-27.51,5.92ZM167.72,584.32h.15c.77.07,1.55.1,2.32.1,3.82,0,7.58-.71,11.19-2.12,4.39-1.72,8.37-4.37,11.8-7.89,3.47-3.56,6.21-7.8,8.14-12.61,1.94-4.88,2.96-10.02,3.01-15.28.06-5.27-.84-10.44-2.68-15.37-1.77-4.78-4.42-9.09-7.88-12.83-3.35-3.6-7.27-6.36-11.63-8.19-3.81-1.61-7.83-2.43-11.96-2.43-.5,0-1.01.01-1.51.04h-.17s-.17,0-.17,0c-.38-.01-.76-.02-1.14-.02-4.15,0-8.19.83-12.01,2.48-4.25,1.82-8.07,4.54-11.36,8.08-3.36,3.65-5.95,7.86-7.7,12.52-1.82,4.82-2.72,9.86-2.7,15,.18,10.17,3.83,19.79,10.27,27.02,6.33,7.1,14.73,11.19,23.67,11.5h.34Z"/>
      <path d="M167.63,464.39c9.45,0,18.8,2.13,27.49,6.25,8.69,4.12,16.54,10.15,23.08,17.73,6.54,7.58,11.62,16.55,14.95,26.37,3.33,9.82,4.84,20.29,4.43,30.78.17,10.21-1.53,20.37-5.01,29.97-3.46,9.52-8.61,18.16-15.15,25.42-6.53,7.26-14.31,12.98-22.88,16.83-8.13,3.67-16.95,5.57-25.87,5.57-.37,0-.74,0-1.11,0h0,0,0c-.14,0-.29,0-.43,0-9.12,0-18.13-1.97-26.42-5.77-8.52-3.88-16.26-9.61-22.76-16.85-6.51-7.24-11.65-15.85-15.13-25.32-3.5-9.56-5.24-19.67-5.14-29.84-.41-10.44,1.09-20.88,4.43-30.78,3.33-9.82,8.42-18.79,14.95-26.37,6.54-7.58,14.39-13.61,23.08-17.73,8.69-4.12,18.04-6.25,27.49-6.25M168.48,503.75c-.43-.02-.86-.02-1.29-.02-4.67,0-9.29.95-13.59,2.8-4.74,2.03-9.06,5.1-12.71,9.03-3.7,4.02-6.59,8.72-8.51,13.83-1.98,5.25-2.98,10.82-2.95,16.43.2,11.13,4.24,21.75,11.29,29.66,7.05,7.91,16.57,12.51,26.59,12.84,0,0,.26,0,.26,0,.88.07,1.75.1,2.63.1,4.3,0,8.58-.81,12.64-2.39,4.9-1.91,9.39-4.91,13.21-8.82,3.81-3.91,6.87-8.64,8.99-13.91,2.12-5.32,3.24-11,3.29-16.73.07-5.74-.93-11.43-2.93-16.81-1.94-5.24-4.89-10.04-8.68-14.15-3.73-4.01-8.16-7.13-13.02-9.17-4.28-1.81-8.87-2.74-13.51-2.74-.57,0-1.14.01-1.71.04M729.27,464.98c4.61,0,9.24.49,13.81,1.47,14,3,26.87,10.51,36.98,21.56,10.11,11.05,17.01,25.16,19.83,40.53,2.81,15.37,1.41,31.31-4.03,45.8-5.44,14.49-14.67,26.88-26.53,35.6-11.85,8.72-25.79,13.37-40.06,13.37-.43,0-.85.01-1.28.01-9.1,0-18.1-1.9-26.41-5.59-8.79-3.88-16.79-9.66-23.51-17.01-6.72-7.34-12.03-16.1-15.6-25.74-3.6-9.73-5.37-20.03-5.23-30.39-.08-15.68,4.08-31.02,11.94-44.1,7.86-13.08,19.09-23.29,32.24-29.35,8.86-4.08,18.33-6.15,27.84-6.15M729.29,588.78c4.73,0,9.41-.98,13.74-2.89,4.78-2.09,9.12-5.26,12.75-9.31,3.63-4.04,6.47-8.87,8.34-14.19,1.88-5.36,2.74-11.03,2.53-16.71h-.13c.15-5.49-.72-10.96-2.56-16.14-1.78-5.05-4.53-9.7-8.09-13.71-3.51-3.91-7.7-6.98-12.31-9.04-4.29-1.92-8.93-2.91-13.63-2.91-.3,0-.6,0-.89.01-.34-.01-.68-.01-1.02-.01-4.71,0-9.37.96-13.7,2.82-4.69,2.01-8.97,5.03-12.6,8.89-3.69,3.95-6.59,8.56-8.55,13.59-2.02,5.17-3.1,10.66-3.18,16.2,0,11.31,3.97,22.17,11.07,30.27,7.1,8.1,16.76,12.8,26.94,13.11.43.02.86.02,1.3.02M167.63,456.39c-10.7,0-21.1,2.36-30.92,7.02-9.75,4.62-18.4,11.26-25.71,19.74-7.25,8.41-12.79,18.17-16.47,29.03-3.65,10.82-5.29,22.07-4.86,33.47-.08,11.11,1.81,22.03,5.63,32.47,3.85,10.49,9.47,19.88,16.69,27.92,7.28,8.1,15.82,14.42,25.4,18.78,9.39,4.3,19.4,6.49,29.74,6.49h.38c.39,0,.78,0,1.17,0,10.12,0,19.94-2.11,29.16-6.28,9.61-4.31,18.21-10.63,25.53-18.76,7.26-8.07,12.89-17.5,16.72-28.04,3.8-10.5,5.65-21.47,5.49-32.62.42-11.45-1.22-22.7-4.86-33.44-3.68-10.86-9.22-20.62-16.47-29.03-7.3-8.47-15.95-15.11-25.71-19.74-9.82-4.66-20.22-7.02-30.92-7.02h0ZM168.53,511.75l.35-.02c.44-.02.88-.03,1.32-.03,3.59,0,7.08.71,10.39,2.11,3.85,1.62,7.3,4.06,10.28,7.25,3.07,3.33,5.45,7.2,7.04,11.48,1.67,4.48,2.49,9.16,2.43,13.93-.05,4.78-.96,9.44-2.73,13.86-1.73,4.3-4.18,8.11-7.28,11.28-3.04,3.11-6.53,5.45-10.39,6.96-3.14,1.22-6.42,1.85-9.73,1.85-.67,0-1.35-.03-2.02-.08l-3.5-.27c-6.77-.95-13.07-4.4-17.99-9.92-5.8-6.51-9.09-15.18-9.26-24.43-.01-4.63.81-9.18,2.44-13.51,1.57-4.18,3.89-7.96,6.91-11.24,2.88-3.1,6.24-5.5,9.97-7.09,3.33-1.43,6.83-2.16,10.44-2.16.33,0,.66,0,.99.02h.35ZM729.27,456.98v8-8h0c-10.78,0-21.27,2.32-31.19,6.89-14.66,6.76-27.03,17.99-35.75,32.49-8.64,14.36-13.16,31.02-13.09,48.19-.14,11.36,1.79,22.53,5.73,33.2,3.96,10.68,9.75,20.22,17.21,28.37,7.5,8.2,16.31,14.57,26.18,18.93,9.37,4.16,19.35,6.27,29.64,6.27.45,0,.9,0,1.35-.01,16-.02,31.46-5.18,44.72-14.93,13.15-9.67,23.27-23.24,29.28-39.23,5.97-15.89,7.49-33.2,4.41-50.05-3.09-16.9-10.63-32.29-21.79-44.49-11.28-12.32-25.53-20.62-41.21-23.98-5.09-1.09-10.3-1.65-15.48-1.65h0ZM697.99,545.44c.07-4.59.96-9.08,2.63-13.35,1.6-4.11,3.94-7.83,6.95-11.05,2.87-3.05,6.21-5.41,9.9-6.99,3.36-1.45,6.91-2.18,10.55-2.18.26,0,.52,0,.78.01h.22s.22,0,.22,0c.23,0,.45,0,.68,0,3.59,0,7.08.74,10.36,2.21,3.62,1.61,6.85,3.99,9.62,7.08,2.86,3.22,5.06,6.93,6.5,11.03,1.52,4.28,2.23,8.74,2.11,13.26l-.18,6.92c-.34,2.5-.93,4.96-1.77,7.37-1.53,4.34-3.79,8.21-6.74,11.49-2.89,3.22-6.25,5.68-10.01,7.33-3.35,1.48-6.89,2.22-10.53,2.22-.33,0-.66,0-.99-.02h-.03s-.03,0-.03,0c-7.99-.24-15.5-3.92-21.16-10.38-5.85-6.67-9.07-15.53-9.08-24.93h0Z"/>
    </g>
  </g>
  <g id="Chasis">
    <path id="VanBorder" class="border" d="M669.67,70.62l-66.38-2.31c-4.17,0-5.86,0-5.86,5.93q0,14.46,13.02,14.46c23.17,0,46.46-1.3,69.76,1.01,11.37.78,22.25,5.48,31.11,13.45,56.17,50.81,107.85,107.45,154.36,169.15,18.99,26.73,30.68,58.93,33.71,92.81,3.28,26.86,4.67,53.91,4.17,80.96.07,12.77-1.73,25.48-5.34,37.73-1.17,3.18,0,3.9,2.21,5.35,3.75,1.59,6.79,4.75,8.47,8.81,1.68,4.1,1.86,8.66.51,12.88l-2.21,15.61c-.1,2.75-.72,5.46-1.83,7.98-1.07,2.45-2.62,4.66-4.56,6.5-1.86,1.77-4.09,3.1-6.52,3.92-2.38.79-4.91,1.02-7.39.68h-63.9c-3.77,0-4.82-1.3-5.07-5.64-1.2-24.33-10.43-47.32-25.92-64.59-15.49-17.26-36.16-27.58-58.06-28.99-21.9-1.41-43.51,6.18-60.69,21.34-17.18,15.16-28.74,36.81-32.47,60.82-.78,4.77.91,11.71-2.47,14.46-3.38,2.75-9.11.87-13.93.87h-360.12c-5.99,0-7.16-2.03-7.81-8.1-1.31-18.41-7.43-36-17.6-50.61-10.17-14.61-23.95-25.61-39.67-31.65-15.49-7.11-32.54-8.96-48.98-5.33-16.44,3.63-31.55,12.58-43.43,25.72-8.5,8.48-15.4,18.75-20.29,30.21-4.89,11.47-7.69,23.9-8.21,36.58,0,4.05-1.56,5.06-4.94,4.92H18.4c-2.59.18-5.18-.28-7.54-1.35-2.44-1.1-4.59-2.75-6.29-4.82-1.77-2.16-3.07-4.66-3.81-7.35-.76-2.75-.96-5.63-.59-8.46v-17.64c-.47-3.34.14-6.75,1.75-9.72,1.59-2.91,4.06-5.1,6.97-6.18,7.68-2.6,6.25-7.95,5.6-13.73-3.56-31.38-6.07-62.86-7.55-94.4-3.08-59.15-1.73-118.44,4.03-177.39,2.24-26.61,6.59-53.01,13.02-78.93,1.88-11.32,7.53-21.43,15.83-28.32,8.3-6.89,18.64-10.04,28.94-8.83h52.06c4.3,0,5.34-1.01,5.34-5.78q0-14.46-13.01-14.46l-98.13,4.05c-2.22,0-5.47,2.03-6.51-1.88-.07-1.61.35-3.21,1.21-4.57.81-1.3,2.03-2.29,3.48-2.8,10.9-6.45,22.76-10.67,35.01-12.44,12.65-2.55,25.37-4.76,38.13-6.65,4.43,0,5.6-2.31,4.03-7.08-1.54-5.91-4.19-11.39-7.78-16.08-3.59-4.69-8.04-8.47-13.04-11.1-1.95-.87-4.3-1.16-4.3-4.63s3.51-2.89,5.6-3.62c10.28-2.85,21.15-1.22,30.37,4.57,9.22,5.78,16.1,15.27,19.22,26.52,1.43,5.06,2.99,6.65,7.81,6.07,100.82-11.54,202.34-15.75,303.77-12.58,31.63.87,63.25.87,94.88,2.31,57.18.89,114.19,6.36,170.5,16.34,10.31,1.88,20.36,4.98,29.93,9.25,3.36,1.49,6.51,3.48,9.37,5.93,3.38,2.6,6.51,6.51,5.07,11.28-1.43,4.77-5.73,2.02-8.59,1.88-21.21,0-42.43-1.45-63.51-2.17v-.14h0ZM448.42,324.48H17.88c-1.69,0-4.3,1.45-4.03,5.06,1.56,19.23.91,38.6,2.08,57.83,1.69,30.79,4.43,61.44,7.29,92.09,0,5.78,2.21,8.24,7.94,7.95h46.72c2.2.24,4.43-.21,6.37-1.27,2.02-1.12,3.69-2.78,4.82-4.8,9.48-14.61,22.17-26.27,36.87-33.87,14.7-7.6,30.91-10.87,47.08-9.5,20.25,1.12,39.68,9.21,55.61,23.15,15.93,13.94,27.56,33.03,33.28,54.63,1.69,6.22,0,15.18,5.21,18.07,5.88,1.64,12,1.88,17.96.72h339.82c5.47,0,7.42-1.16,8.46-7.81,3.06-22.18,12.78-42.56,27.59-57.83,10.06-11.02,22.16-19.48,35.45-24.8,13.3-5.31,27.47-7.36,41.55-5.98,14.08,1.37,27.71,6.13,39.97,13.94,12.26,7.81,22.84,18.49,31.01,31.29.93,1.61,2.26,2.95,3.88,3.87,1.55.88,3.32,1.29,5.11,1.19h58.31c13.02,0,14.45-1.16,16.92-15.9.06-.48.06-.97,0-1.45,3.47-24.87,3.82-50.07,1.04-75.03-1.43-21.11-4.43-42.08-8.98-62.74-1.43-6.65-3.9-8.97-10.54-8.97-142.04.29-284.07.34-426.11.14,0,0-.13,0-.13,0ZM445.95,315.09h425.33q7.68,0,4.16-7.81c-5.23-11.6-11.78-22.57-19.52-32.67-42.95-55.97-89.72-108.17-139.91-156.13-14.66-14.41-33.81-21.88-53.36-20.82H66.43c-7.29-.38-14.48,1.98-20.4,6.7-5.93,4.72-10.25,11.53-12.26,19.32-3.24,11.55-5.76,23.34-7.55,35.27-7.81,48.47-11.72,97.49-11.71,146.59q0,9.83,8.72,9.83s422.73-.29,422.73-.29ZM734.1,67.44c-6.39-7.84-15.04-12.95-24.47-14.46-39.83-9.29-80.44-14.81-121.3-16.48-30.46-2.17-60.78-3.32-91.1-4.48-25.25-.87-50.63-.87-75.88-1.3-39.04,0-79-1.45-118.57.72-18.09,1.01-36.18,1.01-54.14,2.17-8.72,0-17.57,0-26.03,1.45-35.92,3.18-71.98,5.49-107.76,10.12-28.5,3.08-56.7,8.45-84.34,16.05-4.29.53-8.29,2.67-11.32,6.07,30.85-1.45,60.52-3.18,90.33-4.34l76.4-3.04c36.57-2.17,73.14-2.17,109.59-3.04,47.24,0,94.49-.87,141.73.72,36.05,1.3,72.1,1.59,108.28,3.18,36.18,1.59,69.89,2.31,104.9,3.32h17.57l66.12,3.33ZM361.74,88.4h206.81c11.84,0,11.58,0,11.97-13.45,0-6.36-1.69-7.81-7.03-7.95-69.5-2.03-139-4.48-208.24-4.77-69.24-.29-140.43,2.31-210.58,4.77-10.67,0-10.15,0-10.8,12.72,0,7.52,1.69,8.82,8.07,8.82,69.5-.29,139.65-.14,209.8-.14ZM816.22,496.52c5.02,11.06,8.32,22.99,9.76,35.27,0,3.18,1.17,4.34,4.03,4.34h58.31c1.24.16,2.51.03,3.7-.38,1.21-.42,2.32-1.11,3.24-2,.96-.94,1.72-2.05,2.23-3.29.53-1.27.82-2.63.85-4.01,0-5.78,1.69-11.42,2.47-17.2,1.17-8.68-1.56-12.43-9.76-12.58,0,0-74.84-.14-74.84-.14ZM80.35,496.52H18.92c-7.29,0-10.15,3.61-10.28,11.57v16.48c0,7.52,2.99,11.28,9.89,11.28h48.15c2.21,0,3.64,0,3.9-3.47,1.45-12.37,4.74-24.45,9.76-35.85Z"/>
    <path id="UpperBackround" class="white" d="M446.09,315.08H22.85q-8.85,0-8.72-9.83c.13-49.01,4.18-97.94,12.1-146.3,1.92-11.85,4.58-23.54,7.94-34.99,1.97-7.74,6.23-14.52,12.08-19.27,5.85-4.74,12.96-7.17,20.2-6.9h596.21c19.53-1.1,38.68,6.31,53.36,20.67,50.19,47.97,96.96,100.17,139.91,156.14,7.71,10.2,14.27,21.42,19.52,33.39q3.51,7.81-4.17,7.81h-425.2v-.72ZM240.72,124.69H83.37c-2.99-.49-6.06-.19-8.91.87-2.92,1.09-5.54,2.88-7.61,5.22-2.17,2.44-3.77,5.32-4.69,8.45-.95,3.21-1.22,6.58-.78,9.9v114.5c0,18.65,6.77,26.02,23.43,26.02h312.36c16.66,0,23.43-7.52,23.43-26.02v-112.91c0-18.5-6.77-26.02-23.43-26.02h-156.44ZM668.13,289.06h117.92c4.27.72,8.63-.11,12.43-2.38,3.8-2.27,6.84-5.85,8.65-10.2,1.58-4.65,1.78-9.65.56-14.41-1.22-4.74-3.79-8.92-7.32-11.91-33.84-36.43-67.81-72.28-101.52-109.44-4.56-5.12-10-9.17-15.99-11.92-5.92-2.74-12.37-4.15-18.89-4.13h-113.75c-3.06-.51-6.19-.21-9.1.85-2.99,1.1-5.66,2.92-7.79,5.3-2.22,2.48-3.87,5.42-4.81,8.62-.98,3.27-1.26,6.71-.82,10.1v114.5c0,17.78,7.16,25.59,23.17,25.59,0,0,117.26-.58,117.26-.58Z"/>
    <path id="Board" class="wheel-color" d="M734.11,67.44l-66.12-2.75-17.05-.58c-35.01-1.01-70.02-1.73-104.9-3.33-34.88-1.59-72.75-1.88-108.8-3.03-47.24-1.59-94.49-1.16-141.73-.72-36.44,0-73.01,1.45-109.59,3.03l-76.4,2.89c-29.8,1.16-59.48,2.89-90.33,4.34,3.04-3.4,7.04-5.54,11.32-6.07,27.52-7.38,55.6-12.56,83.95-15.47,35.79-4.63,71.84-6.94,107.76-10.12,8.72-.72,17.57-.87,26.03-1.45,17.96-1.16,36.05-1.16,54.14-2.17,39.04-2.17,79-1.45,118.57-.72,25.25,0,50.63,0,75.88,1.3,30.45,1.16,60.78,2.31,91.1,4.48,40.78,1.67,81.36,7.18,121.3,16.48,9.49,1.26,18.29,6.17,24.86,13.88Z"/>
    <g id="Bumper">
      <path id="FrontBumper" class="white" d="M816.24,496.52h74.84c8.2,0,10.93,3.9,9.76,12.58-.78,5.78-1.95,11.42-2.47,17.2-.02,1.38-.31,2.74-.85,4.01-.52,1.24-1.28,2.36-2.24,3.29-.92.9-2.03,1.58-3.24,2-1.19.41-2.45.54-3.7.38h-58.31c-2.86,0-3.64-1.16-4.03-4.34-1.43-12.14-4.73-23.99-9.76-35.13Z"/>
      <path id="BackBumper" class="white" d="M80.37,496.52c-5.03,11.44-8.32,23.58-9.76,36,0,3.18-1.69,3.61-3.9,3.47H18.54c-6.9,0-9.76-3.76-9.89-11.27v-16.63c0-7.95,2.99-11.42,10.28-11.56h61.43Z"/>
    </g>
    <g id="WindowBackground">
      <rect id="BackWindow" class="white" x="51.31" y="116.97" width="379" height="178"/>
      <polygon id="FrontWindow" class="white" points="855.31 294.97 507.31 294.97 507.31 116.97 696.31 116.97 855.31 294.97"/>
    </g>
    <path id="WindowBorder" class="border" d="M240.71,124.69h156.18c16.66,0,23.43,7.52,23.43,26.02v112.91c0,18.51-6.77,26.02-23.43,26.02H84.79c-16.66,0-23.43-7.37-23.43-26.02v-114.5c-.44-3.32-.17-6.69.78-9.9.92-3.13,2.52-6.02,4.7-8.45,2.07-2.33,4.69-4.12,7.61-5.22,2.84-1.05,5.91-1.35,8.91-.87h157.35ZM112.25,279.52h252.36c-13.17-16.58-24.92-34.23-35.14-52.77-16.12-26.03-28.34-54.78-36.18-85.15-1.3-5.78-2.86-7.66-8.33-7.66h-84.73c-7.03,0-10.28,1.73-10.8,9.54-.55,3.43-1.51,6.78-2.86,9.97-11.23,31.05-26.25,60.24-44.64,86.74-9.17,13.64-19.08,26.76-29.67,39.32h0ZM411.6,207.24v-54.94c0-14.46-2.99-18.36-16.14-18.36h-82.9q-13.01,0-8.85,14.46c13.52,41.79,33.56,80.6,59.22,114.64,13.02,18.36,13.02,18.07,34.23,17.93,11.32,0,14.84-4.05,14.84-16.77,0,0-.39-56.96-.39-56.96ZM69.69,206.37v59.42c-.17,2.22.13,4.46.88,6.56.72,2.04,1.89,3.9,3.42,5.44,4.62,2.24,9.74,3.24,14.86,2.9,5.09-.35,10.03-2.04,14.42-4.92,18.78-21.35,35.4-44.91,49.59-70.26,12.07-19.92,21.65-41.56,28.5-64.33,1.43-5.35,1.04-7.52-4.81-7.37h-92.8c-10.67,0-14.06,3.9-14.06,16.05,0,0,0,56.53,0,56.53ZM668.12,289.06h-117.14c-16.01,0-23.17-7.81-23.17-25.59v-113.92c-.44-3.39-.16-6.83.82-10.1.95-3.19,2.59-6.14,4.81-8.62,2.13-2.37,4.8-4.19,7.79-5.3,2.91-1.07,6.04-1.36,9.1-.85h113.62c6.57-.11,13.09,1.26,19.17,4.01,6.08,2.76,11.6,6.85,16.23,12.04,33.71,36.58,67.68,72.28,101.52,109.44,3.44,3.06,5.91,7.27,7.04,12.01,1.12,4.74.85,9.75-.79,14.3-1.72,4.43-4.7,8.12-8.49,10.49-3.78,2.37-8.16,3.31-12.47,2.66,0,0-118.04-.58-118.04-.58ZM668.12,279.66h117.14c5.99,0,11.32-.72,13.01-8.24s-.52-11.27-4.17-15.03l-100.21-107.99c-4.06-4.71-8.96-8.42-14.38-10.91-5.36-2.48-11.22-3.69-17.12-3.55h-110.89c-11.97,0-15.36,3.76-15.36,17.06v112.19c0,13.16,3.38,16.91,15.36,16.91,0,0,116.61-.43,116.61-.43Z"/>
    <path id="BottomBackground" class="van-color" d="M892.83,471.02v1.42c-2.37,14.45-3.55,15.87-16.82,15.87h-58.28c-1.9.24-3.55-.24-5.21-1.18-1.66-.95-2.84-2.13-3.79-3.79-8.29-12.79-18.72-23.45-31.04-31.27-12.32-7.82-25.82-12.56-40.04-13.98-13.98-1.42-28.19.71-41.46,5.92-13.27,5.21-25.35,13.74-35.54,24.88-14.69,15.16-24.4,35.54-27.48,57.81-1.18,6.63-3.08,7.82-8.53,7.82h-339.27c-5.92,1.18-12.08.95-18.01-.71-5.45-3.08-3.55-11.85-5.21-18.24-5.69-21.56-17.29-40.51-33.17-54.49-16.11-13.98-35.54-22.03-55.68-23.22-16.11-1.42-32.46,1.9-47.15,9.48-14.69,7.58-27.25,19.19-36.72,33.88-1.19,2.13-2.84,3.79-4.98,4.74-1.9,1.18-4.03,1.66-6.4,1.42H31.39c-5.69,0-7.34-2.13-7.82-8.06-3.08-30.56-5.69-61.13-7.34-91.92-1.18-19.43,0-38.62-2.13-58.05,0-3.55.71-5.21,4.03-4.97,3.32.24,3.55,0,5.45,0l425.27.95h425.98c6.63,0,9,2.37,10.42,9,4.5,20.37,7.34,40.99,8.77,61.6,2.61,24.88,2.37,50.23-1.18,75.1Z"/>
  </g>
</svg>