<?xml version="1.0" encoding="UTF-8"?>
<svg id="roadsurfer" xmlns="http://www.w3.org/2000/svg" viewBox="0 0 959.06 172.07">
  <defs>
    <style>
      .cls-1 {
        fill: #2a2a29;
      }
    </style>
  </defs>
  <path id="r" class="cls-1" d="M67.98,38.17c-1.09-.12-2.19-.18-3.29-.18h-3.07c-7.96,0-15.91.67-23.76,2.01-7.24,1.2-14.34,3.11-21.21,5.7l-.44.18L0,131.04h27.73l14.15-74.08c3.4.05,6.8.31,10.17.77,3.44.42,6.84,1.14,10.15,2.15l.79.25,6.01-21.86s-1.02-.11-1.02-.11Z"/>
  <path id="o" class="cls-1" d="M114.53,37.99c-6.44-.11-12.86.75-19.04,2.56-5.25,1.58-10.1,4.41-14.21,8.28-4.2,4.16-7.56,9.21-9.86,14.84-2.88,7.04-4.95,14.39-6.18,21.89-2.92,16.57-1.64,28.82,3.86,36.43s15.33,11.5,29.36,11.5c6.46.11,12.9-.75,19.11-2.54,5.28-1.59,10.16-4.42,14.31-8.29,4.18-4.14,7.54-9.16,9.86-14.76,2.9-7.06,4.97-14.44,6.16-21.98,3.04-16.55,1.77-28.82-3.78-36.43-5.55-7.62-15.44-11.5-29.59-11.5ZM91.23,103.03c.38-5.76,1.13-11.48,2.23-17.12,1.02-5.81,2.38-11.56,4.07-17.21,1.09-3.73,2.62-7.32,4.57-10.68,1.24-2.22,2.99-4.06,5.08-5.34,1.81-.98,3.84-1.49,5.9-1.48,1.85-.07,3.67.42,5.27,1.42,1.58,1.25,2.68,3.09,3.11,5.16.79,3.47,1.02,7.03.69,10.57-.43,5.75-1.2,11.48-2.32,17.14-1.01,5.81-2.37,11.56-4.07,17.21-1.07,3.74-2.61,7.32-4.57,10.68-1.24,2.22-2.98,4.05-5.06,5.34-1.82.97-3.85,1.48-5.91,1.46-1.82.07-3.61-.42-5.17-1.42-1.54-1.27-2.62-3.09-3.04-5.14-.79-3.47-1.05-7.04-.77-10.59Z"/>
  <path id="a" class="cls-1" d="M227.29,39.64c-6.71-1.12-13.49-1.67-20.29-1.65-6.41-.12-12.81.75-18.96,2.56-5.2,1.58-10,4.45-14,8.38-4.15,4.21-7.47,9.28-9.76,14.91-2.83,7.06-4.92,14.39-6.24,21.87-3.15,16.82-1.86,29.12,3.86,36.56,5.72,7.44,15.52,11.21,29.16,11.21,6.75.02,13.48-.5,20.14-1.57,6.53-1.09,12.99-2.61,19.32-4.56l.48-.14,15.43-82.73-.69-.25c-6.01-2.04-12.18-3.58-18.45-4.61ZM184.25,102.58c.32-5.54,1.04-11.06,2.15-16.5,1.01-5.67,2.37-11.27,4.07-16.77,1.11-3.64,2.78-7.06,4.93-10.11,1.6-2.22,3.73-3.93,6.16-4.95,2.74-1.01,5.64-1.49,8.56-1.42,1.15,0,2.45,0,3.88.16,1.02.08,2.04.24,3.04.48l-11.96,64.47c-1.08.28-2.18.49-3.29.62-1.25.16-2.5.24-3.76.25-2.75.1-5.48-.38-8.03-1.41-2-.92-3.59-2.67-4.4-4.86-1.14-3.19-1.6-6.59-1.35-9.97Z"/>
  <path id="d" class="cls-1" d="M320.16,2.09l-7.21,37.82c-2.36-.51-4.74-.95-7.13-1.32-2.59-.4-5.2-.6-7.82-.61-5.89-.09-11.76.77-17.38,2.56-4.98,1.65-9.54,4.52-13.34,8.38-4.02,4.27-7.25,9.33-9.51,14.92-2.83,7.06-4.92,14.39-6.24,21.87-3.14,16.82-1.84,29.12,3.88,36.56s15.49,11.21,29.09,11.21c6.75.02,13.48-.5,20.14-1.57,6.53-1.08,12.98-2.61,19.3-4.56l.49-.14L348.04,2.11l-27.88-.02ZM295.09,118.56c-3.94.71-7.98.31-11.73-1.16-2-.94-3.58-2.68-4.4-4.86-1.12-3.2-1.56-6.59-1.28-9.97.31-5.55,1.03-11.07,2.15-16.5,1-5.67,2.36-11.27,4.07-16.77,1.08-3.64,2.72-7.06,4.85-10.11,1.6-2.22,3.72-3.93,6.14-4.95,2.74-1.01,5.64-1.49,8.56-1.42,1.16,0,2.46.05,3.89.16,1.02.08,2.04.24,3.04.48l-12.12,64.47c-1.04.28-2.1.48-3.17.62Z"/>
  <path id="s" class="cls-1" d="M398.33,40.2c-4.89-1.52-9.99-2.26-15.11-2.21-9.86,0-17.68,2.19-23.15,6.53-5.65,4.59-9.45,11.37-10.61,18.92-1.03,4.67-.94,9.51.26,14.13,1.06,3.48,2.87,6.65,5.27,9.24,2.31,2.44,4.96,4.46,7.85,6,2.79,1.49,5.46,3.01,7.91,4.5,2.14,1.25,4.08,2.87,5.75,4.79.66.83,1.12,1.82,1.36,2.88.24,1.06.24,2.17,0,3.24-.14,1.11-.48,2.19-1.01,3.18-.52.96-1.22,1.82-2.07,2.51-1.73,1.39-4.73,2.1-8.92,2.1-3.67,0-7.31-.64-10.76-1.89-3.4-1.19-6.66-2.75-9.73-4.63l-.77-.48-6.82,15.57.62.43c4.31,2.72,8.97,4.75,13.82,6.03,5.67,1.62,11.53,2.44,17.43,2.44,9.23,0,16.8-2.1,22.49-6.25,5.69-4.15,9.48-10.8,11.12-19.72,1.01-4.52.91-9.23-.28-13.7-1.06-3.43-2.88-6.54-5.28-9.06-2.35-2.42-5.01-4.44-7.92-6-2.71-1.45-5.38-2.98-8-4.59-2.15-1.28-4.09-2.88-5.76-4.75-.69-.8-1.18-1.75-1.43-2.78-.26-1.04-.27-2.13-.04-3.18.12-1.13.45-2.22.98-3.23.52-.99,1.23-1.86,2.07-2.55,2.37-1.53,5.12-2.24,7.87-2.01,3.41-.04,6.81.48,10.05,1.53,2.72.86,5.36,1.97,7.9,3.33l.77.44,6.28-15.18-.62-.39c-3.61-2.2-7.48-3.95-11.52-5.2h0Z"/>
  <path id="u" class="cls-1" d="M477.75,40.61l-14.99,78.46c-1.64.2-3.14.36-4.58.44-1.44.09-3.28.18-4.93.18-4.71,0-7.87-1.21-9.37-3.56-1.49-2.35-1.72-6.75-.59-12.74l11.77-62.78h-27.93l-10.97,58.54c-2.19,11.39-.82,20.06,4.07,25.79,4.9,5.73,13.98,8.54,27.13,8.54,6.94-.03,13.87-.62,20.71-1.78,6.98-1.17,13.88-2.74,20.67-4.72l.5-.16,16.43-86.25s-27.93.04-27.93.04Z"/>
  <path id="r-2" data-name="r" class="cls-1" d="M567.88,60.19l6-21.91-1-.11c-1.06-.12-2.14-.18-3.21-.18h-3.14c-7.97,0-15.92.67-23.77,2.01-7.24,1.21-14.34,3.11-21.21,5.7l-.45.18-16.21,85.17h27.73l14.15-74.08c3.4.05,6.8.31,10.17.77,3.45.42,6.85,1.14,10.17,2.15l.77.3h0Z"/>
  <path id="f" class="cls-1" d="M637.34,40.61h-19.29l2.19-10.25c1.02-5.04,2.38-8.53,4.04-10.38.94-.94,2.06-1.67,3.27-2.13,1.21-.46,2.49-.65,3.78-.56,1.78,0,3.55.22,5.27.68,1.43.37,2.84.87,4.19,1.51l.77.37,5.27-13.76-.62-.39c-2.76-1.64-5.71-2.95-8.77-3.92-4.17-1.27-8.51-1.87-12.86-1.78-9.15,0-16.33,2.14-21.36,6.37-5.02,4.24-8.49,11.25-10.31,20.81l-2.61,13.51-10.61,1.57-2.74,13.7h10.47l-14.03,73.97c-1,5.65-2.55,11.19-4.6,16.55-2.25,5.34-5.36,10.21-9.17,14.38l-.46.52,6.66,10.68.57-.18c9.86-3.06,17.65-7.96,23.13-14.56,5.49-6.6,9.37-15.7,11.5-27.05l14.18-74.38h18.96l3.21-15.29h0Z"/>
  <path id="e" class="cls-1" d="M713.01,53.56c-1.1-3.65-3.23-6.84-6.08-9.13-3.19-2.45-6.83-4.14-10.68-4.95-4.81-1.06-9.73-1.56-14.66-1.49-6.13-.1-12.23.8-18.07,2.65-5.1,1.68-9.79,4.57-13.73,8.47-4.11,4.19-7.4,9.24-9.68,14.83-2.83,6.95-4.83,14.21-5.96,21.63-1.45,7.26-1.86,14.68-1.22,22.05.48,5.44,2.38,10.61,5.49,14.92,3.2,4.03,7.43,6.94,12.16,8.38,5.94,1.84,12.15,2.72,18.37,2.58,5.91.04,11.8-.67,17.56-2.1,5.05-1.27,9.92-3.17,14.49-5.66l.61-.34-4.16-14.9-.85.39c-3.17,1.52-6.43,2.79-9.77,3.79-3.41.95-6.93,1.41-10.47,1.37-2.62.06-5.23-.36-7.69-1.26-1.96-.74-3.67-2.09-4.93-3.88-1.37-2.12-2.26-4.56-2.58-7.12-.45-3.55-.45-7.13,0-10.68,3.03,0,6.38,0,9.99-.18,3.91-.12,8.35-.46,13.15-1.05,3.62-.41,7.2-1.12,10.73-2.12,3.12-.88,6.07-2.35,8.72-4.32,2.55-1.93,4.69-4.43,6.27-7.33,1.81-3.47,2.99-7.23,3.49-11.11.87-4.46.7-9.06-.5-13.44h0ZM663.4,79.09c.89-4.4,2.04-8.74,3.43-12.99.98-3.11,2.33-6.1,4.01-8.9,1.12-1.86,2.62-3.42,4.39-4.56,1.49-.89,3.19-1.36,4.93-1.37,1.12-.09,2.24.1,3.27.55,1.04.46,1.96,1.17,2.7,2.08,1.35,1.78,1.64,5.16.95,10.09-.69,4.93-2.12,8.54-4.16,10.54-2.82,2.33-6.22,3.68-9.75,3.88-1.89.23-3.78.39-5.59.52-1.4.09-2.81.14-4.17.16Z"/>
  <path id="r-final" class="cls-1" d="M951.52,103.35c-10.65.23-21.36,10.86-31.02,14.99-13.62,5.84-29.57,4.52-32.09-13.53-.41-2.95-.44-9.43.92-12.46,4.24-9.47,9.33-4.88,16.53-6.8,5.6-1.51,11.5-2.87,12.57-10.54,1.82-12.74-16.33-16.64-24.64-16.5-13.15.25-24.65,7.85-34.62,16.41-6.47,5.55-12.27,11.93-18.4,17.91-6.13,5.98-19.72,22.16-29.57,10.43-4.35-5.23-3.28-14.99-2.15-21.07,2.31-10.59,7.5-20.2,14.88-27.59,11.63-11.64,23.25-10.68,37.07-14.83,6.92-2.06,11.5-7.12,7.54-15.48-5.75-12.21-26.88-18.94-38.05-21.29-15.19-3.24-30.9-2.19-45.61,3.04-39,13.9-57.5,54.96-66.11,95.65-2.02,9.58-9.51,26.89,2.42,30.45,9.41,2.81,18.35.37,21.36-9.27.07-.15.12-.3.15-.46.01-.12.01-.24,0-.36,3.39-25.75,9.54-52.42,24.74-73.17,14.13-19.13,37.77-29.3,59.05-24.49-8.13,4.17-15.36,10.13-21.24,17.5-15.02,18.63-27.47,51.95-14.06,75.18,9.68,16.8,28.42,16.3,43.36,8.52,10.49-5.48,20.99-19.76,32.19-30.56-.25,1.95-.4,3.92-.44,5.89-.62,34.58,27.3,44.5,53.57,35.29,10.3-3.56,29.57-10.82,36.57-20.93,4.75-6.91,3.01-12.05-4.92-11.94h0Z"/>
</svg>